<?xml version="1.0" encoding="UTF-8"?><svg xmlns="http://www.w3.org/2000/svg" xmlns:xlink="http://www.w3.org/1999/xlink" viewBox="0 0 50 50" version="1.1"><path d="M41.098 39h-7.114v-2h7.114c.27 0 .535-.016.797-.047l.226 1.988c-.336.04-.676.059-1.023.059zm-10.121 0h-8.02v-2h8.02zm-11.024 0H11.93v-2h8.023zm-11.121-.035a9.72 9.72 0 0 1-7.348-4.485l1.692-1.066a7.704 7.704 0 0 0 5.828 3.559zm36.496-1.031l-.953-1.758a6.869 6.869 0 0 0 3.61-5.637l1.995.125a8.849 8.849 0 0 1-4.652 7.27zM.223 31.398a9.641 9.641 0 0 1 2.102-8.348l1.519 1.302a7.674 7.674 0 0 0-1.668 6.621zm47.437-3.441a6.943 6.943 0 0 0-4.898-4.559l.476-1.941a8.965 8.965 0 0 1 6.325 5.879zm-7.613-5.879c.066-.527.098-.965.098-1.383 0-1.98-.528-3.93-1.524-5.629l1.727-1.011c1.175 2.008 1.703 4.304 1.797 6.64-.672.864-2.098 1.383-2.098 1.383zm-34.168.594l-.988-1.738c.468-.27.964-.497 1.472-.684a7.05 7.05 0 0 1 2.817-5.148l1.191 1.605a4.972 4.972 0 0 0-2.023 4.023l.039 1.004-.758.211a7.63 7.63 0 0 0-1.75.727zM18.004 18.3l-1.106-1.106a5.05 5.05 0 0 0-4.238-1.422l-.273-1.984a7.13 7.13 0 0 1 4.828 1.09c.187-.375.39-.746.613-1.106l1.7 1.055a11.23 11.23 0 0 0-.981 2.008zm18.945-5.414a11.163 11.163 0 0 0-6.437-3.239l.27-1.98a13.207 13.207 0 0 1 7.597 3.816zm-15.699-.2l-1.395-1.437a13.144 13.144 0 0 1 7.692-3.625l.219 1.988a11.13 11.13 0 0 0-6.516 3.075z" id="surface1"/><metadata><rdf:RDF xmlns:rdf="http://www.w3.org/1999/02/22-rdf-syntax-ns#" xmlns:rdfs="http://www.w3.org/2000/01/rdf-schema#" xmlns:dc="http://purl.org/dc/elements/1.1/"><rdf:Description about="https://iconscout.com/legal#licenses" dc:title="dashed,cloud" dc:description="dashed,cloud" dc:publisher="Iconscout" dc:date="2017-12-11" dc:format="image/svg+xml" dc:language="en"><dc:creator><rdf:Bag><rdf:li>Icons8</rdf:li></rdf:Bag></dc:creator></rdf:Description></rdf:RDF></metadata></svg>